<?xml version="1.0" encoding="utf-8"?>
<!-- Generator: Adobe Illustrator 26.0.0, SVG Export Plug-In . SVG Version: 6.00 Build 0)  -->
<svg version="1.1" id="Layer_1" xmlns="http://www.w3.org/2000/svg" xmlns:xlink="http://www.w3.org/1999/xlink" x="0px" y="0px"
	 viewBox="0 0 595.3 841.9" style="enable-background:new 0 0 595.3 841.9;" xml:space="preserve">
<style type="text/css">
	.st0{fill:#D31519;}
	.st1{fill:#FFFFFF;}
	.st2{fill:url(#SVGID_1_);}
	.st3{fill:url(#SVGID_00000031887917020939087600000012539495601172228010_);}
	.st4{fill:#FFFFFF;stroke:#FFFFFF;stroke-width:7.5621;stroke-linecap:round;stroke-linejoin:round;stroke-miterlimit:10;}
	.st5{fill:#CC1517;}
	.st6{fill:url(#SVGID_00000177459712766454582840000013642526159894851983_);}
	.st7{fill:url(#SVGID_00000140721574321495793030000007358993184989313708_);}
</style>
<g>
	<g>
		<g>
			<g>
				<g>
					<g>
						<path class="st0" d="M163.5,168.1l-84.8,64.1l-6.1-23.9C61,163.7,55.6,118,56.3,72.5v0c1.5-30,20.1-42.7,46.4-35.1l1.3,0.4
							c40.7,11.6,80,28.5,117,50.2l27.4,16.1L163.5,168.1z"/>
					</g>
					<g>
						<g>
							<path class="st1" d="M81.2,42.1c2.7,0,5.7,0.4,9,1.3l0,0l0,0l1.4,0.4C135.2,55,177.1,71.9,216.3,94l0.3,0.2L147,146.6
								L77.7,199c-9.9-44.6-14.1-90.4-12.3-136.1C66,55.1,68,49,71.2,45.7C72.6,44.1,75.2,42.1,81.2,42.1L81.2,42.1 M81.2,19.5
								c-21.6,0-36.4,14.7-38.4,42.1v0c-2,50.4,2.9,100.9,14.6,150l6.3,26.3l97-73.3l97-73.3l-30.3-17.1
								c-40.9-23.1-84.6-40.7-130-52.4l-1.4-0.4C90.7,20.2,85.8,19.5,81.2,19.5L81.2,19.5z"/>
						</g>
					</g>
				</g>
				<g>
					<path class="st0" d="M434,168.8l79,61.1l6.7-23.3c12.5-43.5,19.4-88,20.3-132.2v0c-0.4-29.2-17.7-41.2-43.3-33.4l-1.2,0.4
						C456.2,53.1,417.9,70,381.8,91.7l-26.8,16L434,168.8z"/>
				</g>
				<g>
					<g>
						<path class="st1" d="M516.2,45.9c5.7,0,8.2,1.9,9.5,3.4c3,3.2,4.9,9.1,5.4,16.8c1.3,45.2-3.2,90.3-13.4,134.3L450.1,148
							l-67.8-52.3c39.1-21.4,80.8-37.6,123.9-48.3l1.4-0.3l0,0l0,0C510.8,46.3,513.6,45.9,516.2,45.9 M516.2,22.3
							c-4.5,0-9.2,0.6-14.2,1.9l-1.4,0.3C455,35.8,411.1,53,370,75.6l-30.5,16.8l96.2,74.3l96.2,74.3l6.5-26.3
							c12.2-48.9,17.6-99.3,16.2-149.8v0C552.9,37.2,538.1,22.3,516.2,22.3L516.2,22.3z"/>
					</g>
				</g>
			</g>
			<g>
				<linearGradient id="SVGID_1_" gradientUnits="userSpaceOnUse" x1="57.5521" y1="444.3658" x2="538.6291" y2="444.3658">
					<stop  offset="0" style="stop-color:#E52421"/>
					<stop  offset="1" style="stop-color:#D31216"/>
				</linearGradient>
				<path class="st2" d="M538.6,323.7c4.1,168.2-213.2,482.4-239.1,483.9C276.2,809,56.2,494.7,57.6,323.7
					c1.1-134,107.7-242.6,240.5-242.6S535.3,189.8,538.6,323.7z"/>
				
					<linearGradient id="SVGID_00000037680022277338082360000004322429445108070061_" gradientUnits="userSpaceOnUse" x1="57.5522" y1="444.3658" x2="538.6291" y2="444.3658">
					<stop  offset="0" style="stop-color:#D31216"/>
					<stop  offset="1" style="stop-color:#D31216"/>
				</linearGradient>
				<path style="fill:url(#SVGID_00000037680022277338082360000004322429445108070061_);" d="M298.1,81.9
					c63.7,0,123.4,25.2,168.3,70.9c21.7,22.1,39,48,51.2,76.9c12.6,29.7,19.4,61.4,20.2,94.2c2.3,95.8-66.8,231.6-108.2,304
					c-26.3,46.1-55.4,91.1-81.9,126.8c-23.7,31.9-42.2,51.9-48.3,52.3c0,0-0.1,0-0.1,0c-1.3,0-4.7-1.3-13.1-9.7
					c-28.1-28.3-86.1-110.9-134.7-200.1c-27.8-51.1-49.9-99.2-65.7-142.9C67.3,403,58,359.1,58.3,323.7c0.3-32.7,6.8-64.4,19.3-94.2
					c12.1-28.8,29.4-54.7,51.3-76.9c22-22.2,47.5-39.7,76-51.8C234.4,88.2,265.7,81.9,298.1,81.9 M298.1,81.1
					c-132.8,0-239.4,108.6-240.5,242.6c-1.4,170.6,217.7,483.9,241.7,483.9c0.1,0,0.1,0,0.2,0c25.9-1.5,243.2-315.7,239.1-483.9
					C535.3,189.8,430.9,81.1,298.1,81.1L298.1,81.1z"/>
			</g>
			<g>
				<path class="st1" d="M298.7,89.1c61.7,0,119.7,24.4,163.2,68.7c43.4,44.2,68.1,103.4,69.6,166.9c0.9,36.9-9.2,84.1-30.1,140.4
					c-17.7,47.8-43.6,102.5-74.8,158.1c-26.1,46.5-55.6,93.2-83.1,131.6c-21.5,29.9-35.6,46.2-43.4,54c-7.8-7.9-21.8-24.1-43.2-53.8
					c-27.6-38.3-57.3-84.9-83.4-131.2c-31.4-55.6-57.6-110.2-75.8-158.1c-21.4-56.5-32.1-104.1-31.8-141.5
					c0.3-31.9,6.6-62.7,18.8-91.7c11.8-28,28.6-53.2,49.9-74.8C178.3,113.5,236.6,89.1,298.7,89.1 M298.7,68.7
					c-139.8,0-252.1,114.4-253.2,255.4C44,503.8,274.7,833.6,299.9,833.6c0.1,0,0.1,0,0.2,0c27.3-1.6,256.1-332.4,251.8-509.4
					C548.4,183.2,438.5,68.7,298.7,68.7L298.7,68.7z"/>
			</g>
			<g>
				<path class="st1" d="M392.6,251.2l33.8-65.7c0.6-1.3,0.4-2.8-0.7-3.7c-25.3-21.9-56.4-37.3-90.6-43.8c-1.6-0.3-3.2,0.7-3.5,2.3
					L309.2,239c-1.9,8.4-13.9,8.4-15.8,0l-22.7-99.6c-0.4-1.6-1.9-2.6-3.5-2.3c-35.2,5.7-67.3,20.8-93.5,42.8
					c-1.1,0.9-1.4,2.4-0.8,3.7l31.5,64c3.6,7.2-5.1,14.3-11.5,9.3L143,217.6c-1.4-1.1-3.4-0.8-4.4,0.6c-21,30.2-33.7,66.6-34.8,106
					c-3,113.1,91.7,205.5,204.7,199.8c103-5.2,184.9-90.3,184.9-194.6c0-39.8-11.9-76.8-32.4-107.6c-1-1.5-3-1.8-4.4-0.8l-52.6,39.8
					C397.5,265.6,388.9,258.4,392.6,251.2z"/>
			</g>
		</g>
	</g>
	<g>
		<path class="st4" d="M219.1,405.1l-187.7-2c-9.7-0.1-17.8,4-18.2,9.1l0,0c-0.4,5.1,7.1,9.3,16.8,9.4l187.7,2
			c9.7,0.1,17.8-4,18.2-9.1l0,0C236.3,409.4,228.8,405.2,219.1,405.1z"/>
		<path class="st4" d="M223.8,368.8L38.8,337.3c-9.5-1.6-18.2,1.1-19.4,6.1l0,0c-1.2,5,5.6,10.3,15.1,11.9l185.1,31.5
			c9.5,1.6,18.2-1.1,19.4-6.1v0C240.1,375.8,233.4,370.4,223.8,368.8z"/>
		<path class="st4" d="M231.7,426L49.1,469.6c-9.4,2.2-16.3,8.2-15.5,13.2l0,0c0.9,5,9.2,7.3,18.6,5.1l182.6-43.6
			c9.4-2.2,16.3-8.2,15.5-13.2v0C249.4,426,241.1,423.8,231.7,426z"/>
	</g>
	<g>
		<path class="st4" d="M376,397.6l187.7,1.1c9.7,0.1,17.8,4.2,18.1,9.3l0,0c0.3,5.1-7.3,9.2-16.9,9.1l-187.7-1.1
			c-9.7-0.1-17.8-4.2-18.1-9.3l0,0C358.8,401.7,366.3,397.6,376,397.6z"/>
		<path class="st4" d="M371.9,361.3l185.6-28.6c9.6-1.5,18.2,1.4,19.3,6.4l0,0c1.1,5-5.7,10.2-15.3,11.7l-185.6,28.6
			c-9.6,1.5-18.2-1.4-19.3-6.4l0,0C355.5,368,362.3,362.8,371.9,361.3z"/>
		<path class="st4" d="M363.1,418.4L545,464.9c9.4,2.4,16.2,8.4,15.3,13.4l0,0c-0.9,5-9.3,7.2-18.7,4.8l-181.9-46.6
			c-9.4-2.4-16.2-8.4-15.3-13.4v0C345.4,418.1,353.7,416,363.1,418.4z"/>
	</g>
	<g>
		<g>
			<g>
				<circle class="st1" cx="217.7" cy="356.2" r="66.9"/>
				<path class="st5" d="M217.7,295.5c33.5,0,60.8,27.3,60.8,60.8S251.2,417,217.7,417S157,389.7,157,356.2S184.2,295.5,217.7,295.5
					 M217.7,283.3c-40.3,0-73,32.7-73,73s32.7,73,73,73s73-32.7,73-73S258,283.3,217.7,283.3L217.7,283.3z"/>
			</g>
			
				<linearGradient id="SVGID_00000168087541836706140020000004253776775554388119_" gradientUnits="userSpaceOnUse" x1="174.9532" y1="356.4609" x2="262.8536" y2="356.4609">
				<stop  offset="0" style="stop-color:#E52421"/>
				<stop  offset="1" style="stop-color:#D31216"/>
			</linearGradient>
			<circle style="fill:url(#SVGID_00000168087541836706140020000004253776775554388119_);" cx="218.9" cy="356.5" r="43.9"/>
			<g>
				<path class="st1" d="M244.3,346.1c-3,0-5.8-1.4-7.5-3.8c-3-4.1-2.1-10,2-13c1.6-1.2,3.5-1.8,5.5-1.8c3,0,5.8,1.4,7.5,3.8
					c3,4.1,2.1,10-2,13C248.2,345.5,246.3,346.1,244.3,346.1z"/>
				<path class="st1" d="M244.3,318c-3.9,0-7.8,1.2-11.1,3.7c-8.4,6.1-10.2,17.9-4,26.3c3.7,5,9.4,7.7,15.2,7.7
					c3.9,0,7.8-1.2,11.1-3.7c8.4-6.1,10.2-17.9,4-26.3C255.8,320.7,250.1,318,244.3,318L244.3,318z"/>
			</g>
		</g>
		<g>
			<g>
				<path class="st1" d="M385.4,423.1c-36.9,0-66.9-30-66.9-66.9s30-66.9,66.9-66.9s66.9,30,66.9,66.9S422.3,423.1,385.4,423.1z"/>
				<path class="st5" d="M385.4,295.5c33.5,0,60.8,27.3,60.8,60.8S418.9,417,385.4,417s-60.8-27.3-60.8-60.8
					S351.9,295.5,385.4,295.5 M385.4,283.3c-40.3,0-73,32.7-73,73s32.7,73,73,73s73-32.7,73-73S425.7,283.3,385.4,283.3L385.4,283.3
					z"/>
			</g>
			
				<linearGradient id="SVGID_00000024701884235314302880000002934695027816607134_" gradientUnits="userSpaceOnUse" x1="340.6291" y1="357.6235" x2="433.1604" y2="357.6235">
				<stop  offset="0" style="stop-color:#E52421"/>
				<stop  offset="1" style="stop-color:#D31216"/>
			</linearGradient>
			<circle style="fill:url(#SVGID_00000024701884235314302880000002934695027816607134_);" cx="386.9" cy="357.6" r="46.3"/>
			<g>
				<path class="st1" d="M417.4,349.9c-3.1,0-5.9-1.4-7.8-3.9c-1.5-2.1-2.1-4.6-1.8-7.2c0.4-2.5,1.7-4.8,3.8-6.3
					c1.7-1.2,3.6-1.9,5.7-1.9c3.1,0,5.9,1.4,7.8,3.9c1.5,2.1,2.1,4.6,1.8,7.2c-0.4,2.5-1.7,4.8-3.8,6.3
					C421.4,349.3,419.4,349.9,417.4,349.9z"/>
				<path class="st1" d="M417.3,320.8c-4,0-8,1.2-11.5,3.8c-8.6,6.4-10.5,18.5-4.2,27.2c3.8,5.2,9.7,7.9,15.7,7.9
					c4,0,8-1.2,11.5-3.8c8.6-6.4,10.5-18.5,4.2-27.2C429.2,323.6,423.3,320.8,417.3,320.8L417.3,320.8z"/>
			</g>
		</g>
	</g>
</g>
</svg>
