<?xml version="1.0" encoding="utf-8"?>
<!-- Generator: Adobe Illustrator 26.0.0, SVG Export Plug-In . SVG Version: 6.00 Build 0)  -->
<svg version="1.1" id="Layer_1" xmlns="http://www.w3.org/2000/svg" xmlns:xlink="http://www.w3.org/1999/xlink" x="0px" y="0px"
	 viewBox="0 0 809.8 1026.2" style="enable-background:new 0 0 809.8 1026.2;" xml:space="preserve">
<style type="text/css">
	.st0{fill:#E83C45;}
	.st1{fill:#D31519;}
	.st2{opacity:0.7;}
	.st3{fill:#BC1818;}
	.st4{fill:#FFFFFF;}
	.st5{fill:none;stroke:#FFFFFF;stroke-width:12.0385;stroke-linecap:round;stroke-linejoin:round;stroke-miterlimit:10;}
	.st6{fill:url(#SVGID_1_);}
	.st7{fill:url(#SVGID_00000003095959463080996800000014285709334996204960_);}
	.st8{opacity:0.8;}
	.st9{fill:url(#SVGID_00000152965123034211424170000016736210641302194833_);}
	.st10{fill:#CC1517;}
	.st11{fill:none;stroke:#CC1517;stroke-width:12.0385;stroke-miterlimit:10;}
	
		.st12{fill:none;stroke:url(#SVGID_00000010293857647339836960000010357855247904256938_);stroke-width:12.0385;stroke-linecap:round;stroke-linejoin:round;stroke-miterlimit:10;}
	
		.st13{fill:none;stroke:url(#SVGID_00000085221712070658345730000009270256523490872196_);stroke-width:12.0385;stroke-linecap:round;stroke-linejoin:round;stroke-miterlimit:10;}
	
		.st14{fill:none;stroke:url(#SVGID_00000009577209836463996740000015570611760188639135_);stroke-width:12.0385;stroke-miterlimit:10;}
	
		.st15{fill:none;stroke:url(#SVGID_00000105410379055508583700000006085734951875284117_);stroke-width:12.0385;stroke-miterlimit:10;}
	
		.st16{fill:none;stroke:url(#SVGID_00000170979119352415591860000012152796145988715911_);stroke-width:12.0385;stroke-miterlimit:10;}
	
		.st17{fill:none;stroke:url(#SVGID_00000081618399832658547040000000632265135961231521_);stroke-width:12.1444;stroke-miterlimit:10;}
	
		.st18{fill:none;stroke:url(#SVGID_00000005263952845212424710000005092779753558346687_);stroke-width:12.1444;stroke-miterlimit:10;}
	
		.st19{fill:none;stroke:url(#SVGID_00000104665414080528379410000017632676341545753475_);stroke-width:12.1444;stroke-miterlimit:10;}
	.st20{fill:none;stroke:#FFFFFF;stroke-width:29.6331;stroke-linecap:round;stroke-linejoin:round;stroke-miterlimit:10;}
	.st21{fill:#D31519;stroke:#FFFFFF;stroke-width:11.7528;stroke-linecap:round;stroke-linejoin:round;stroke-miterlimit:10;}
	.st22{fill:url(#SVGID_00000108272882513007527330000002590765359370664334_);}
	.st23{fill:url(#SVGID_00000050652446999867926040000005458229381188207258_);}
	.st24{fill:url(#SVGID_00000021829522176501492430000003088543660145213313_);}
	.st25{fill:url(#SVGID_00000113327210998258830410000006923225907396133272_);}
</style>
<g>
	<g>
		<g>
			<g>
				<g>
					<g>
						<path class="st0" d="M155.2,149.5l-83.9,63.3l-4.2-21.1c-7.8-39.3-9.8-80-6.1-121l0,0c3.4-27.1,21.7-39.7,45.9-34.7l1.2,0.2
							c37.4,7.7,73.2,20.2,106.4,37.3l24.6,12.6L155.2,149.5z"/>
					</g>
					<g>
						<path class="st1" d="M165.3,168.9l-83.9,63.3l-4.2-21.1c-7.8-39.3-9.8-80-6.1-121l0,0c3.4-27.1,21.7-39.7,45.9-34.7l1.2,0.2
							c37.4,7.7,73.2,20.2,106.4,37.3l24.6,12.6L165.3,168.9z"/>
					</g>
					<g class="st2">
						<g>
							<path class="st3" d="M214.6,73.3L194.5,83c-43.8,21.1-83.1,50.4-115.8,86.4l-18.3,20.2l3.8,19.3l83.9-63.3l83.9-63.3
								L214.6,73.3z"/>
						</g>
					</g>
					<g>
						<g>
							<path class="st4" d="M81.3,46.1c2.3,0,5,0.4,7.9,1.2l0,0l0,0l1.5,0.4c42.5,11,83.6,27.1,122.3,48l-65.8,49.7l-65.5,49.5
								C72.9,151.2,69.3,106.6,71,62c0.8-9.7,3.6-13.3,4.4-14.2C75.9,47.3,77.1,46.1,81.3,46.1L81.3,46.1L81.3,46.1 M81.3,15.5
								c-23,0-38.6,15.6-40.8,44.8v0c-2.1,53.6,3.1,107.2,15.5,159.3l6.7,28l103.1-77.8l103.1-77.8l-32.2-18.2
								C193.1,49.2,146.7,30.5,98.4,18l-1.5-0.4C91.4,16.2,86.2,15.5,81.3,15.5L81.3,15.5z"/>
						</g>
					</g>
					<path class="st5" d="M104.9,99c0,0,48.6-12.9,55.8,42"/>
				</g>
				<g>
					<path class="st0" d="M513.9,63.4l-75.8,29.5l12.7,12.7c23.7,23.6,50.6,43.8,79.9,60.2l0,0c19.8,10.1,35.5,3.2,41.5-16.1
						l0.3-0.9c9.4-29.7,14.8-60.6,16.1-91.7l1-23.1L513.9,63.4z"/>
				</g>
				<g>
					<path class="st1" d="M490.2,168l76,58.7l4.7-20.1c8.8-37.5,12.3-76.3,10.4-115.2v0c-2.1-25.7-18.8-37.4-41.6-32.1l-1.1,0.2
						c-35.3,8-69.2,20.5-100.9,37.4l-23.5,12.5L490.2,168z"/>
				</g>
				<g class="st2">
					<g>
						<path class="st3" d="M599.3,197.6l-14.3-17.2c-31.1-37.3-69.2-68.3-112-91.2l-24-12.8l-17.8,8.4l81.8,66l81.8,66L599.3,197.6z
							"/>
					</g>
				</g>
				<g>
					<g>
						<path class="st4" d="M572.8,49.8c4.1,0,5.2,1.1,5.6,1.6c1.6,1.8,3.6,6.3,4.1,13.9c1.2,44.1-2.8,88.3-12,131.4l-64.1-49.5
							L442,97.4c38.6-20.2,79.5-35.7,121.7-46.2l1.5-0.4l0.1,0l0.1,0C568.1,50.1,570.6,49.8,572.8,49.8 M572.8,18.5
							c-4.7,0-9.8,0.7-15.1,2l-1.5,0.4c-48.4,11.9-95,30.2-138.8,54.2l-32.4,17.8l102.2,78.9l102.2,78.9l7-27.9
							c13-52,18.7-105.6,17.2-159.2C611.8,34.3,596.1,18.5,572.8,18.5L572.8,18.5z"/>
					</g>
				</g>
				<path class="st5" d="M547.8,100.7c0,0-48.5-13.4-56.2,41.4"/>
			</g>
			<g>
				<linearGradient id="SVGID_1_" gradientUnits="userSpaceOnUse" x1="29.4895" y1="533.5631" x2="621.1601" y2="533.5631">
					<stop  offset="0" style="stop-color:#E52421"/>
					<stop  offset="1" style="stop-color:#D31216"/>
				</linearGradient>
				<path class="st6" d="M621.1,385.2c5,206.9-262.2,593.2-294.1,595.1C298.4,982,27.8,595.4,29.5,385.2
					C30.8,220.4,161.9,86.8,325.3,86.8S617.1,220.4,621.1,385.2z"/>
				
					<linearGradient id="SVGID_00000054264402396115957380000015034229924454603668_" gradientUnits="userSpaceOnUse" x1="29.4895" y1="533.5631" x2="621.1601" y2="533.5631">
					<stop  offset="0" style="stop-color:#D31216"/>
					<stop  offset="1" style="stop-color:#D31216"/>
				</linearGradient>
				<path style="fill:url(#SVGID_00000054264402396115957380000015034229924454603668_);" d="M325.3,87.7
					c78.3,0,151.8,30.9,207,87.1c26.7,27.2,47.9,59,63,94.6c15.5,36.6,23.9,75.5,24.9,115.8c1.2,47.6-12.1,108-39.3,179.6
					C558.4,624,526,691.2,487.1,759.2c-32.4,56.7-68.2,112-100.7,155.9c-29.1,39.2-51.9,63.9-59.4,64.3c0,0-0.1,0-0.1,0
					c-1.6,0-5.8-1.6-16.1-11.9c-17.3-17.4-43.6-51.3-72-92.9c-22.8-33.2-57.5-86.8-93.6-153.2c-34.2-62.9-61.4-122-80.8-175.7
					c-22.8-63-34.1-117-33.8-160.5c0.3-40.2,8.3-79.2,23.7-115.8c14.9-35.5,36.2-67.3,63.1-94.6c27-27.3,58.4-48.8,93.4-63.8
					C247,95.6,285.5,87.7,325.3,87.7 M325.3,86.8c-163.4,0-294.5,133.6-295.8,298.4C27.8,595,297.2,980.3,326.8,980.3
					c0.1,0,0.1,0,0.2,0c31.9-1.9,299.2-388.3,294.1-595.1C617.1,220.4,488.7,86.8,325.3,86.8L325.3,86.8z"/>
			</g>
			<g class="st8">
				<g>
					
						<linearGradient id="SVGID_00000003823829110039848630000013433960273248850067_" gradientUnits="userSpaceOnUse" x1="300.5443" y1="538.411" x2="785.1541" y2="538.411">
						<stop  offset="0.6865" style="stop-color:#E83C45"/>
						<stop  offset="1" style="stop-color:#EC6577"/>
					</linearGradient>
					<path style="fill:url(#SVGID_00000003823829110039848630000013433960273248850067_);" d="M618.1,390
						c-4-164.8-132.4-298.4-295.8-298.4c-72,0-137.6,25.9-188.7,69c46.4-30.9,102-48.8,161.8-48.8c163.4,0,291.8,133.7,295.8,298.4
						c4.4,178.8-194.7,491.7-269.4,574.5c0.8,0.3,1.6,0.5,2.2,0.4C355.9,983.3,623.2,596.9,618.1,390z"/>
				</g>
				<g>
					<path class="st10" d="M68.5,364.5c4.1-92.1,48.5-173,115.4-225.3C101.8,189.5,45.5,279.4,40.9,383.7
						c-9.4,210,246.7,606.3,275.3,605.7c4.3-0.1,13.3-7.1,25.5-19.7C304.3,953.9,59.2,570,68.5,364.5z"/>
				</g>
			</g>
			<path class="st4" d="M457.9,201.3l-6.7,7.1l-30.7,32.7c-4.1,4.3-11.3,0.7-10.2-5.1l7.7-44.2l2.1-12.3
				c-17.8-8.1-36.8-14-56.7-17.3l-12.7,42.4L339,244c-2,6.8-11.6,6.8-13.6,0l-11.8-39.3l-13.2-44.2c-20.2,2.2-39.7,7-58,14.1l2.7,18
				l7.1,48c0.7,4.8-5.2,7.6-8.5,4l-32.3-36.2l-10.9-12.3C137.8,236.9,96.4,307.2,96,387.3c-0.6,125.2,100.9,228.6,226,230.4
				c128.1,1.8,232.6-101.6,232.6-229.3C554.6,311.2,516.4,242.9,457.9,201.3z"/>
			<g>
				<path class="st4" d="M326,101.2c74.7,0,144.8,29.5,197.5,83.2c25.6,26.1,45.9,56.6,60.4,90.7c14.9,35.1,23,72.6,23.9,111.4
					c1.1,44.6-11.2,101.8-36.5,170.1c-21.6,58.3-53.1,125.1-91.1,193c-31.8,56.9-67.9,114.2-101.7,161.3
					c-24.2,33.8-40.9,53.6-50.9,64.2c-10-10.6-26.6-30.3-50.6-63.8C243.2,864.2,207,807.1,175,750.5c-38.3-67.9-70.2-134.6-92.3-193
					C56.8,488.9,43.9,431.2,44.3,386c0.3-38.6,8-75.9,22.7-111c14.3-34,34.6-64.4,60.4-90.5C180.5,130.8,251,101.2,326,101.2
					 M326,71.6c-172,0-310,140.7-311.4,314.2c-1.8,220.9,281.9,626.5,313,626.5c0.1,0,0.1,0,0.2,0c33.6-2,314.9-408.8,309.6-626.5
					C633.2,212.3,498,71.6,326,71.6L326,71.6z"/>
			</g>
			<g>
				<g>
					<path class="st11" d="M330.5,478.6c0,17.7-14.9,32-33.3,32s-33.3-14.3-33.3-32"/>
				</g>
				<g>
					<path class="st11" d="M398,478.6c0,17.7-14.9,32-33.3,32s-33.3-14.3-33.3-32"/>
				</g>
			</g>
			<g>
				<g>
					
						<linearGradient id="SVGID_00000009562745595910967120000004825805076294910366_" gradientUnits="userSpaceOnUse" x1="257.8104" y1="491.4354" x2="336.5308" y2="491.4354">
						<stop  offset="0" style="stop-color:#E52421"/>
						<stop  offset="1" style="stop-color:#D31216"/>
					</linearGradient>
					
						<path style="fill:none;stroke:url(#SVGID_00000009562745595910967120000004825805076294910366_);stroke-width:12.0385;stroke-linecap:round;stroke-linejoin:round;stroke-miterlimit:10;" d="
						M330.5,475.4c0,17.7-14.9,32-33.3,32s-33.3-14.3-33.3-32"/>
				</g>
				<g>
					
						<linearGradient id="SVGID_00000040568257480203961450000007681677497083212963_" gradientUnits="userSpaceOnUse" x1="325.2997" y1="491.4354" x2="404.02" y2="491.4354">
						<stop  offset="0" style="stop-color:#E52421"/>
						<stop  offset="1" style="stop-color:#D31216"/>
					</linearGradient>
					
						<path style="fill:none;stroke:url(#SVGID_00000040568257480203961450000007681677497083212963_);stroke-width:12.0385;stroke-linecap:round;stroke-linejoin:round;stroke-miterlimit:10;" d="
						M398,475.4c0,17.7-14.9,32-33.3,32s-33.3-14.3-33.3-32"/>
				</g>
			</g>
		</g>
		<g>
			<g>
				
					<linearGradient id="SVGID_00000017494458056077373720000009472686784300096657_" gradientUnits="userSpaceOnUse" x1="340.633" y1="706.4793" x2="454.9099" y2="706.4793">
					<stop  offset="0.6865" style="stop-color:#E83C45"/>
					<stop  offset="1" style="stop-color:#EC6577"/>
				</linearGradient>
				
					<path style="fill:none;stroke:url(#SVGID_00000017494458056077373720000009472686784300096657_);stroke-width:12.0385;stroke-miterlimit:10;" d="
					M448.9,660.9c-4.8,48.7-29,86.1-57.4,85.7c-28.4-0.3-45.4-36.4-44.8-86.3"/>
			</g>
			
				<linearGradient id="SVGID_00000111158276278242365550000010801863666698674586_" gradientUnits="userSpaceOnUse" x1="407.3922" y1="724.5544" x2="419.4307" y2="724.5544">
				<stop  offset="0.6865" style="stop-color:#E83C45"/>
				<stop  offset="1" style="stop-color:#EC6577"/>
			</linearGradient>
			
				<line style="fill:none;stroke:url(#SVGID_00000111158276278242365550000010801863666698674586_);stroke-width:12.0385;stroke-miterlimit:10;" x1="413.4" y1="744.8" x2="413.4" y2="704.3"/>
			
				<linearGradient id="SVGID_00000003783153782504468520000010935790875899340705_" gradientUnits="userSpaceOnUse" x1="377.0714" y1="724.5544" x2="389.1099" y2="724.5544">
				<stop  offset="0.6865" style="stop-color:#E83C45"/>
				<stop  offset="1" style="stop-color:#EC6577"/>
			</linearGradient>
			
				<line style="fill:none;stroke:url(#SVGID_00000003783153782504468520000010935790875899340705_);stroke-width:12.0385;stroke-miterlimit:10;" x1="383.1" y1="744.8" x2="383.1" y2="704.3"/>
		</g>
		<g>
			<g>
				
					<linearGradient id="SVGID_00000096029262561437344730000007074702381745509284_" gradientUnits="userSpaceOnUse" x1="197.1283" y1="704.3594" x2="311.5516" y2="704.3594">
					<stop  offset="0.6865" style="stop-color:#E83C45"/>
					<stop  offset="1" style="stop-color:#EC6577"/>
				</linearGradient>
				
					<path style="fill:none;stroke:url(#SVGID_00000096029262561437344730000007074702381745509284_);stroke-width:12.1444;stroke-miterlimit:10;" d="
					M305.5,658c-4.8,49.6-29,87.5-57.5,87.2s-45.4-37.1-44.8-87.8"/>
			</g>
			
				<linearGradient id="SVGID_00000001629034846931099240000005865947264222443682_" gradientUnits="userSpaceOnUse" x1="263.9134" y1="722.7717" x2="276.0579" y2="722.7717">
				<stop  offset="0.6865" style="stop-color:#E83C45"/>
				<stop  offset="1" style="stop-color:#EC6577"/>
			</linearGradient>
			
				<line style="fill:none;stroke:url(#SVGID_00000001629034846931099240000005865947264222443682_);stroke-width:12.1444;stroke-miterlimit:10;" x1="270" y1="743.4" x2="270" y2="702.2"/>
			
				<linearGradient id="SVGID_00000016036444222841572490000010839026692709575349_" gradientUnits="userSpaceOnUse" x1="233.5809" y1="722.7717" x2="245.7253" y2="722.7717">
				<stop  offset="0.6865" style="stop-color:#E83C45"/>
				<stop  offset="1" style="stop-color:#EC6577"/>
			</linearGradient>
			
				<line style="fill:none;stroke:url(#SVGID_00000016036444222841572490000010839026692709575349_);stroke-width:12.1444;stroke-miterlimit:10;" x1="239.7" y1="743.4" x2="239.7" y2="702.2"/>
		</g>
		<g>
			<g>
				<path class="st11" d="M305.3,667.8c-0.6,49.8-24.1,90-52.5,89.7s-51-41-50.4-90.9"/>
			</g>
			<line class="st11" x1="269.2" y1="751.1" x2="269.2" y2="710.6"/>
			<line class="st11" x1="238.9" y1="751.1" x2="238.9" y2="710.6"/>
		</g>
		<g>
			<g>
				<path class="st11" d="M448.9,671.1c-0.6,49.8-24.1,90-52.5,89.7c-28.4-0.3-51-41-50.4-90.9"/>
			</g>
			<line class="st11" x1="412.8" y1="754.4" x2="412.8" y2="713.9"/>
			<line class="st11" x1="382.5" y1="754.4" x2="382.5" y2="713.9"/>
		</g>
		<g>
			<g>
				<path class="st5" d="M305.3,658.9c-0.6,49.8-24.1,90-52.5,89.7s-51-41-50.4-90.9"/>
			</g>
			<line class="st5" x1="269.2" y1="742.1" x2="269.2" y2="701.6"/>
			<line class="st5" x1="238.9" y1="742.1" x2="238.9" y2="701.6"/>
		</g>
		<g>
			<g>
				<path class="st5" d="M448.9,662.2c-0.6,49.8-24.1,90-52.5,89.7c-28.4-0.3-51-41-50.4-90.9"/>
			</g>
			<line class="st5" x1="412.8" y1="745.4" x2="412.8" y2="704.9"/>
			<line class="st5" x1="382.5" y1="745.4" x2="382.5" y2="704.9"/>
		</g>
		<path class="st20" d="M464.6,843.5c0,0,181.3,66.4,166.1-133.8S741,518.9,791.8,583.4"/>
	</g>
	<g>
		<path class="st21" d="M97.2,503.4l109.5-9.3c5.6-0.5,9.8-5.4,9.4-11.1v0c-0.5-5.6-5.4-9.8-11.1-9.4l-109.5,9.3
			c-5.6,0.5-9.8,5.4-9.4,11.1v0C86.6,499.7,91.6,503.8,97.2,503.4z"/>
		<path class="st21" d="M103,459.2l109.8,6c5.7,0.3,10.5-4,10.8-9.7v0c0.3-5.7-4-10.5-9.7-10.8l-109.8-6c-5.7-0.3-10.5,4-10.8,9.7v0
			C93,454,97.4,458.8,103,459.2z"/>
		<path class="st21" d="M112.6,541.9l108.1-20.2c5.6-1,9.2-6.4,8.2-12v0c-1-5.6-6.4-9.2-12-8.2l-108.1,20.2c-5.6,1-9.2,6.4-8.2,12v0
			C101.6,539.3,107,543,112.6,541.9z"/>
	</g>
	<g>
		<path class="st21" d="M559.8,480.4l-109.3-11.5c-5.6-0.6-10.7,3.5-11.3,9.1l0,0c-0.6,5.6,3.5,10.7,9.1,11.3l109.3,11.5
			c5.6,0.6,10.7-3.5,11.3-9.1v0C569.5,486.1,565.4,481,559.8,480.4z"/>
		<path class="st21" d="M545.8,522.8l-106.7-26.6c-5.5-1.4-11.1,2-12.4,7.5l0,0c-1.4,5.5,2,11.1,7.5,12.4l106.7,26.6
			c5.5,1.4,11.1-2,12.4-7.5l0,0C554.6,529.7,551.3,524.1,545.8,522.8z"/>
		<path class="st21" d="M552,439.7L442,439.2c-5.7,0-10.3,4.5-10.3,10.2v0c0,5.7,4.5,10.3,10.2,10.3l109.9,0.5
			c5.7,0,10.3-4.5,10.3-10.2v0C562.2,444.3,557.6,439.7,552,439.7z"/>
	</g>
	<g>
		<circle class="st3" cx="237.8" cy="356.4" r="75.5"/>
	</g>
	<g>
		<circle class="st3" cx="420.5" cy="356.4" r="75.5"/>
	</g>
	<g>
		
			<linearGradient id="SVGID_00000144301917871853581920000002888167536593676947_" gradientUnits="userSpaceOnUse" x1="162.3197" y1="345.363" x2="313.2204" y2="345.363">
			<stop  offset="0.6865" style="stop-color:#E83C45"/>
			<stop  offset="1" style="stop-color:#EC6577"/>
		</linearGradient>
		<circle style="fill:url(#SVGID_00000144301917871853581920000002888167536593676947_);" cx="237.8" cy="345.4" r="75.5"/>
	</g>
	<g>
		
			<linearGradient id="SVGID_00000044861142490371668840000018107798196685865621_" gradientUnits="userSpaceOnUse" x1="344.9177" y1="345.363" x2="495.8185" y2="345.363">
			<stop  offset="0.6865" style="stop-color:#E83C45"/>
			<stop  offset="1" style="stop-color:#EC6577"/>
		</linearGradient>
		<circle style="fill:url(#SVGID_00000044861142490371668840000018107798196685865621_);" cx="420.4" cy="345.4" r="75.5"/>
	</g>
	<g>
		<g>
			<g>
				<path class="st4" d="M239.1,419.6c-38,0-68.9-30.9-68.9-68.9s30.9-68.9,68.9-68.9s68.9,30.9,68.9,68.9S277,419.6,239.1,419.6z"
					/>
				<path class="st10" d="M239.1,288.1c34.5,0,62.6,28.1,62.6,62.6s-28.1,62.6-62.6,62.6s-62.6-28.1-62.6-62.6
					S204.5,288.1,239.1,288.1 M239.1,275.6c-41.5,0-75.2,33.7-75.2,75.2s33.7,75.2,75.2,75.2s75.2-33.7,75.2-75.2
					S280.6,275.6,239.1,275.6L239.1,275.6z"/>
			</g>
			
				<linearGradient id="SVGID_00000166646958575688722570000001085940077048743566_" gradientUnits="userSpaceOnUse" x1="194.968" y1="350.9877" x2="285.5421" y2="350.9877">
				<stop  offset="0" style="stop-color:#E52421"/>
				<stop  offset="1" style="stop-color:#D31216"/>
			</linearGradient>
			<circle style="fill:url(#SVGID_00000166646958575688722570000001085940077048743566_);" cx="240.3" cy="351" r="45.3"/>
			<g>
				<path class="st4" d="M266.4,340.3c-3.1,0-5.9-1.4-7.8-3.9c-3.1-4.3-2.2-10.3,2.1-13.4c1.7-1.2,3.6-1.9,5.7-1.9
					c3.1,0,5.9,1.4,7.8,3.9c3.1,4.3,2.2,10.3-2.1,13.4C270.4,339.7,268.5,340.3,266.4,340.3z"/>
				<path class="st4" d="M266.4,311.4c-4,0-8,1.2-11.5,3.8c-8.6,6.3-10.5,18.5-4.1,27.1c3.8,5.2,9.7,7.9,15.6,7.9
					c4,0,8-1.2,11.5-3.8c8.6-6.3,10.5-18.5,4.1-27.1C278.2,314.1,272.4,311.4,266.4,311.4L266.4,311.4z"/>
			</g>
		</g>
		<g>
			<g>
				<circle class="st4" cx="421" cy="350.8" r="68.9"/>
				<path class="st10" d="M421,288.1c34.5,0,62.6,28.1,62.6,62.6s-28.1,62.6-62.6,62.6s-62.6-28.1-62.6-62.6S386.5,288.1,421,288.1
					 M421,275.6c-41.5,0-75.2,33.7-75.2,75.2s33.7,75.2,75.2,75.2s75.2-33.7,75.2-75.2S462.5,275.6,421,275.6L421,275.6z"/>
			</g>
			
				<linearGradient id="SVGID_00000077320395741502388680000018380309135186418578_" gradientUnits="userSpaceOnUse" x1="374.8994" y1="352.1857" x2="470.2454" y2="352.1857">
				<stop  offset="0" style="stop-color:#E52421"/>
				<stop  offset="1" style="stop-color:#D31216"/>
			</linearGradient>
			<circle style="fill:url(#SVGID_00000077320395741502388680000018380309135186418578_);" cx="422.6" cy="352.2" r="47.7"/>
			<g>
				<path class="st4" d="M454,344.2c-3.2,0-6.1-1.5-8-4c-1.6-2.1-2.2-4.8-1.8-7.4s1.8-4.9,3.9-6.5c1.7-1.3,3.7-1.9,5.9-1.9
					c3.2,0,6.1,1.5,8,4c3.2,4.4,2.3,10.6-2.1,13.9C458.1,343.6,456.1,344.2,454,344.2z"/>
				<path class="st4" d="M453.9,314.3c-4.1,0-8.3,1.3-11.8,3.9c-8.9,6.5-10.8,19.1-4.3,28c3.9,5.3,10,8.2,16.2,8.2
					c4.1,0,8.3-1.3,11.8-3.9c8.9-6.5,10.8-19.1,4.3-28C466.2,317.1,460.1,314.3,453.9,314.3L453.9,314.3z"/>
			</g>
		</g>
	</g>
</g>
</svg>
